<svg width="141" height="116" viewBox="0 0 141 116" fill="none" xmlns="http://www.w3.org/2000/svg">
<path d="M36.6 51.04V65H33.8V55.92L30.06 65H27.94L24.18 55.92V65H21.38V51.04H24.56L29 61.42L33.44 51.04H36.6ZM38.6483 59.42C38.6483 58.3 38.8683 57.3067 39.3083 56.44C39.7616 55.5733 40.3683 54.9067 41.1283 54.44C41.9016 53.9733 42.7616 53.74 43.7083 53.74C44.5349 53.74 45.2549 53.9067 45.8683 54.24C46.4949 54.5733 46.9949 54.9933 47.3683 55.5V53.92H50.1883V65H47.3683V63.38C47.0083 63.9 46.5083 64.3333 45.8683 64.68C45.2416 65.0133 44.5149 65.18 43.6883 65.18C42.7549 65.18 41.9016 64.94 41.1283 64.46C40.3683 63.98 39.7616 63.3067 39.3083 62.44C38.8683 61.56 38.6483 60.5533 38.6483 59.42ZM47.3683 59.46C47.3683 58.78 47.2349 58.2 46.9683 57.72C46.7016 57.2267 46.3416 56.8533 45.8883 56.6C45.4349 56.3333 44.9483 56.2 44.4283 56.2C43.9083 56.2 43.4283 56.3267 42.9883 56.58C42.5483 56.8333 42.1883 57.2067 41.9083 57.7C41.6416 58.18 41.5083 58.7533 41.5083 59.42C41.5083 60.0867 41.6416 60.6733 41.9083 61.18C42.1883 61.6733 42.5483 62.0533 42.9883 62.32C43.4416 62.5867 43.9216 62.72 44.4283 62.72C44.9483 62.72 45.4349 62.5933 45.8883 62.34C46.3416 62.0733 46.7016 61.7 46.9683 61.22C47.2349 60.7267 47.3683 60.14 47.3683 59.46ZM55.723 55.64C56.083 55.0533 56.5496 54.5933 57.123 54.26C57.7096 53.9267 58.3763 53.76 59.123 53.76V56.7H58.383C57.503 56.7 56.8363 56.9067 56.383 57.32C55.943 57.7333 55.723 58.4533 55.723 59.48V65H52.923V53.92H55.723V55.64ZM67.5689 65L63.8089 60.28V65H61.0089V50.2H63.8089V58.62L67.5289 53.92H71.1689L66.2889 59.48L71.2089 65H67.5689ZM82.9886 59.22C82.9886 59.62 82.9619 59.98 82.9086 60.3H74.8086C74.8753 61.1 75.1553 61.7267 75.6486 62.18C76.1419 62.6333 76.7486 62.86 77.4686 62.86C78.5086 62.86 79.2486 62.4133 79.6886 61.52H82.7086C82.3886 62.5867 81.7753 63.4667 80.8686 64.16C79.9619 64.84 78.8486 65.18 77.5286 65.18C76.4619 65.18 75.5019 64.9467 74.6486 64.48C73.8086 64 73.1486 63.3267 72.6686 62.46C72.2019 61.5933 71.9686 60.5933 71.9686 59.46C71.9686 58.3133 72.2019 57.3067 72.6686 56.44C73.1353 55.5733 73.7886 54.9067 74.6286 54.44C75.4686 53.9733 76.4353 53.74 77.5286 53.74C78.5819 53.74 79.5219 53.9667 80.3486 54.42C81.1886 54.8733 81.8353 55.52 82.2886 56.36C82.7553 57.1867 82.9886 58.14 82.9886 59.22ZM80.0886 58.42C80.0753 57.7 79.8153 57.1267 79.3086 56.7C78.8019 56.26 78.1819 56.04 77.4486 56.04C76.7553 56.04 76.1686 56.2533 75.6886 56.68C75.2219 57.0933 74.9353 57.6733 74.8286 58.42H80.0886ZM88.2923 56.22V61.58C88.2923 61.9533 88.379 62.2267 88.5523 62.4C88.739 62.56 89.0457 62.64 89.4723 62.64H90.7723V65H89.0123C86.6523 65 85.4723 63.8533 85.4723 61.56V56.22H84.1523V53.92H85.4723V51.18H88.2923V53.92H90.7723V56.22H88.2923ZM94.2063 52.6C93.7129 52.6 93.2996 52.4467 92.9663 52.14C92.6463 51.82 92.4863 51.4267 92.4863 50.96C92.4863 50.4933 92.6463 50.1067 92.9663 49.8C93.2996 49.48 93.7129 49.32 94.2063 49.32C94.6996 49.32 95.1063 49.48 95.4263 49.8C95.7596 50.1067 95.9263 50.4933 95.9263 50.96C95.9263 51.4267 95.7596 51.82 95.4263 52.14C95.1063 52.4467 94.6996 52.6 94.2063 52.6ZM95.5863 53.92V65H92.7863V53.92H95.5863ZM102.593 65.18C101.686 65.18 100.873 65.02 100.153 64.7C99.4327 64.3667 98.8593 63.92 98.4327 63.36C98.0193 62.8 97.7927 62.18 97.7527 61.5H100.573C100.626 61.9267 100.833 62.28 101.193 62.56C101.566 62.84 102.026 62.98 102.573 62.98C103.106 62.98 103.519 62.8733 103.813 62.66C104.119 62.4467 104.273 62.1733 104.273 61.84C104.273 61.48 104.086 61.2133 103.713 61.04C103.353 60.8533 102.773 60.6533 101.973 60.44C101.146 60.24 100.466 60.0333 99.9327 59.82C99.4127 59.6067 98.9593 59.28 98.5727 58.84C98.1993 58.4 98.0127 57.8067 98.0127 57.06C98.0127 56.4467 98.186 55.8867 98.5327 55.38C98.8927 54.8733 99.3993 54.4733 100.053 54.18C100.719 53.8867 101.499 53.74 102.393 53.74C103.713 53.74 104.766 54.0733 105.553 54.74C106.339 55.3933 106.773 56.28 106.853 57.4H104.173C104.133 56.96 103.946 56.6133 103.613 56.36C103.293 56.0933 102.859 55.96 102.313 55.96C101.806 55.96 101.413 56.0533 101.133 56.24C100.866 56.4267 100.733 56.6867 100.733 57.02C100.733 57.3933 100.919 57.68 101.293 57.88C101.666 58.0667 102.246 58.26 103.033 58.46C103.833 58.66 104.493 58.8667 105.013 59.08C105.533 59.2933 105.979 59.6267 106.353 60.08C106.739 60.52 106.939 61.1067 106.953 61.84C106.953 62.48 106.773 63.0533 106.413 63.56C106.066 64.0667 105.559 64.4667 104.893 64.76C104.239 65.04 103.473 65.18 102.593 65.18ZM115.491 53.76C116.331 53.76 117.078 53.9467 117.731 54.32C118.384 54.68 118.891 55.22 119.251 55.94C119.624 56.6467 119.811 57.5 119.811 58.5V65H117.011V58.88C117.011 58 116.791 57.3267 116.351 56.86C115.911 56.38 115.311 56.14 114.551 56.14C113.778 56.14 113.164 56.38 112.711 56.86C112.271 57.3267 112.051 58 112.051 58.88V65H109.251V50.2H112.051V55.3C112.411 54.82 112.891 54.4467 113.491 54.18C114.091 53.9 114.758 53.76 115.491 53.76Z" fill="#0082CF"/>
<path d="M87.5535 72.2523C64.2182 96.1669 25.9146 96.6365 1.99998 73.3012" stroke="#0082CF" stroke-width="3" stroke-linecap="round"/>
<path d="M53.0001 42.78C76.6268 19.1532 114.933 19.1532 138.56 42.78" stroke="#0082CF" stroke-width="3" stroke-linecap="round"/>
</svg>
